<svg width="46" height="34" viewBox="0 0 46 34" fill="none" xmlns="http://www.w3.org/2000/svg">
<g clip-path="url(#clip0)">
<path d="M39.625 3.77005C35.645 0.566053 29.348 0.0230526 29.078 0.0040526C28.8729 -0.0128352 28.6676 0.0344986 28.4905 0.139495C28.3135 0.244491 28.1735 0.40195 28.09 0.590053C27.9699 0.860274 27.868 1.13823 27.785 1.42205C30.418 1.86705 33.652 2.76205 36.578 4.57805C36.6896 4.64732 36.7865 4.7379 36.8631 4.84462C36.9397 4.95134 36.9946 5.0721 37.0245 5.20001C37.0545 5.32792 37.0589 5.46048 37.0377 5.59012C37.0164 5.71975 36.9698 5.84393 36.9005 5.95555C36.8312 6.06718 36.7406 6.16406 36.6339 6.24068C36.5272 6.3173 36.4065 6.37215 36.2785 6.40209C36.1506 6.43204 36.0181 6.4365 35.8884 6.41522C35.7588 6.39393 35.6346 6.34732 35.523 6.27805C30.493 3.15505 24.211 3.00005 23 3.00005C21.79 3.00005 15.504 3.15605 10.477 6.27705C10.3654 6.34633 10.2412 6.39293 10.1116 6.41422C9.98193 6.4355 9.84937 6.43104 9.72146 6.40109C9.46313 6.34061 9.2394 6.17999 9.0995 5.95455C8.9596 5.72912 8.91498 5.45734 8.97546 5.19901C9.03594 4.94068 9.19657 4.71695 9.422 4.57705C12.348 2.76605 15.582 1.86705 18.215 1.42605C18.063 0.930052 17.925 0.617053 17.915 0.590053C17.8318 0.400622 17.6912 0.24213 17.513 0.136977C17.3348 0.0318229 17.1281 -0.0146754 16.922 0.0040526C16.652 0.0240526 10.355 0.566052 6.32 3.81305C4.215 5.76105 0 17.1521 0 27.0001C0 27.1761 0.0469999 27.344 0.133 27.496C3.039 32.6061 10.973 33.9411 12.781 34.0001H12.812C12.9698 34.0005 13.1254 33.9635 13.2662 33.8923C13.407 33.821 13.5289 33.7175 13.622 33.5901L15.449 31.0741C10.516 29.8011 7.996 27.6371 7.852 27.5081C7.65309 27.3325 7.53207 27.0851 7.51556 26.8203C7.49906 26.5555 7.58843 26.295 7.764 26.0961C7.93957 25.8971 8.18697 25.7761 8.45177 25.7596C8.71658 25.7431 8.97709 25.8325 9.176 26.0081C9.234 26.0631 13.875 30.0001 23 30.0001C32.14 30.0001 36.781 26.0471 36.828 26.0081C37.0275 25.8337 37.2881 25.7457 37.5524 25.7633C37.8168 25.781 38.0634 25.9028 38.238 26.1021C38.3244 26.2003 38.3907 26.3145 38.4329 26.4384C38.4752 26.5622 38.4926 26.6931 38.4843 26.8237C38.4759 26.9543 38.4419 27.0819 38.3842 27.1993C38.3265 27.3168 38.2463 27.4217 38.148 27.5081C38.004 27.6371 35.484 29.8011 30.551 31.0741L32.379 33.5901C32.472 33.7173 32.5938 33.8208 32.7343 33.892C32.8749 33.9633 33.0304 34.0003 33.188 34.0001H33.218C35.028 33.9411 42.961 32.6051 45.868 27.496C45.953 27.344 46 27.1761 46 27.0001C46 17.1521 41.785 5.76205 39.625 3.77005V3.77005ZM16.5 23.0001C14.566 23.0001 13 21.2101 13 19.0001C13 16.7901 14.566 15.0001 16.5 15.0001C18.434 15.0001 20 16.7901 20 19.0001C20 21.2101 18.434 23.0001 16.5 23.0001ZM29.5 23.0001C27.566 23.0001 26 21.2101 26 19.0001C26 16.7901 27.566 15.0001 29.5 15.0001C31.434 15.0001 33 16.7901 33 19.0001C33 21.2101 31.434 23.0001 29.5 23.0001Z" fill="white"/>
</g>
<defs>
<clipPath id="clip0">
<rect width="46" height="34" fill="white"/>
</clipPath>
</defs>
</svg>
